HIERARCHY
ROOT joint_Root
{
	OFFSET 0.0 0.0 0.0
	CHANNELS 6 Xposition Yposition Zposition Zrotation Xrotation Yrotation 
	JOINT Hips
	{
		OFFSET -0.726466 93.3139 -2.00062
		CHANNELS 6 Xposition Yposition Zposition Zrotation Xrotation Yrotation 
		JOINT Spine
		{
			OFFSET 15.7357 0.0 0.0
			CHANNELS 6 Xposition Yposition Zposition Zrotation Xrotation Yrotation 
			JOINT Chest
			{
				OFFSET 8.98455 -0.406207 0.0
				CHANNELS 6 Xposition Yposition Zposition Zrotation Xrotation Yrotation 
				JOINT Neck
				{
					OFFSET 16.3773 0.0 0.0
					CHANNELS 6 Xposition Yposition Zposition Zrotation Xrotation Yrotation 
					JOINT Head
					{
						OFFSET 6.45672 0.0 0.0
						CHANNELS 6 Xposition Yposition Zposition Zrotation Xrotation Yrotation 
						End Site
						{
							OFFSET 0.0 0.0 0.0
						}
					}
				}
				JOINT Shoulder_L
				{
					OFFSET 12.9942 -0.242716 4.98039
					CHANNELS 6 Xposition Yposition Zposition Zrotation Xrotation Yrotation 
					JOINT UpperArm_L
					{
						OFFSET 5.34809 0.0 0.0
						CHANNELS 6 Xposition Yposition Zposition Zrotation Xrotation Yrotation 
						JOINT LowerArm_L
						{
							OFFSET 24.3286 1.87007e-05 0.0
							CHANNELS 6 Xposition Yposition Zposition Zrotation Xrotation Yrotation 
							JOINT Hand_L
							{
								OFFSET 22.2916 0.0 0.0
								CHANNELS 6 Xposition Yposition Zposition Zrotation Xrotation Yrotation 
								End Site
								{
									OFFSET 0.0 0.0 0.0
								}
							}
						}
					}
				}
				JOINT Shoulder_R
				{
					OFFSET 12.9945 -0.242716 -4.98039
					CHANNELS 6 Xposition Yposition Zposition Zrotation Xrotation Yrotation 
					JOINT UpperArm_R
					{
						OFFSET -5.34813 0.0 0.0
						CHANNELS 6 Xposition Yposition Zposition Zrotation Xrotation Yrotation 
						JOINT LowerArm_R
						{
							OFFSET -24.3289 0.000322201 0.0
							CHANNELS 6 Xposition Yposition Zposition Zrotation Xrotation Yrotation 
							JOINT Hand_R
							{
								OFFSET -22.2915 -0.000108084 0.0
								CHANNELS 6 Xposition Yposition Zposition Zrotation Xrotation Yrotation 
								End Site
								{
									OFFSET 0.0 0.0 0.0
								}
							}
						}
					}
				}
			}
		}
		JOINT UpperLeg_L
		{
			OFFSET -2.19248 -6.46944 0.0
			CHANNELS 6 Xposition Yposition Zposition Zrotation Xrotation Yrotation 
			JOINT LowerLeg_L
			{
				OFFSET 39.0811 0.0 -1.23785e-05
				CHANNELS 6 Xposition Yposition Zposition Zrotation Xrotation Yrotation 
				JOINT Foot_L
				{
					OFFSET 40.9854 0.0 -1.26872e-05
					CHANNELS 6 Xposition Yposition Zposition Zrotation Xrotation Yrotation 
					JOINT Toes_L
					{
						OFFSET 11.7543 0.0 0.0
						CHANNELS 6 Xposition Yposition Zposition Zrotation Xrotation Yrotation 
						End Site
						{
							OFFSET 0.0 0.0 0.0
						}
					}
				}
			}
		}
		JOINT UpperLeg_R
		{
			OFFSET -2.19251 6.46944 0.0
			CHANNELS 6 Xposition Yposition Zposition Zrotation Xrotation Yrotation 
			JOINT LowerLeg_R
			{
				OFFSET -39.0811 -0.00228153 -0.0401928
				CHANNELS 6 Xposition Yposition Zposition Zrotation Xrotation Yrotation 
				JOINT Foot_R
				{
					OFFSET -40.9854 0.0 0.0
					CHANNELS 6 Xposition Yposition Zposition Zrotation Xrotation Yrotation 
					JOINT Toes_R
					{
						OFFSET -11.7543 0.0 0.0
						CHANNELS 6 Xposition Yposition Zposition Zrotation Xrotation Yrotation 
						End Site
						{
							OFFSET 0.0 0.0 0.0
						}
					}
				}
			}
		}
	}
}
MOTION
Frames:	4
Frame Time:	0.0333333
0.000000 0.000000 0.000000 0.000000 0.000000 -0.000000 -4.485650 84.715100 -477.683000 85.599800 9.237280 1.639060 15.735700 0.000005 -0.000001 67.919500 77.701000 -64.072400 8.984550 -0.406207 -0.000000 15.476600 -8.863510 8.920310 16.377300 -0.000001 -0.000001 6.999640 -1.720860 -0.814282 6.456720 -0.000001 -0.000000 0.857952 4.346750 -2.528190 12.994200 -0.242716 4.980390 -88.503400 -4.428000 -71.304400 5.348090 -0.000007 -0.000001 -46.003800 17.675900 -32.305700 24.328600 0.000019 0.000005 3.780070 2.222480 -59.593600 22.291600 -0.000001 0.000005 6.001910 5.608990 -11.891300 12.994500 -0.242716 -4.980390 89.788600 0.392715 -61.704300 -5.348130 -0.000001 -0.000004 -54.526000 17.554600 -0.826334 -24.328900 0.000322 -0.000009 4.514280 7.630060 -30.742900 -22.291500 -0.000108 -0.000004 2.486570 5.545100 -8.477400 -2.192480 -6.469440 -0.000000 -164.572000 -0.513533 4.444970 39.081100 -0.000007 -0.000012 0.175911 -0.124359 54.741100 40.985400 -0.000006 -0.000013 3.200430 -5.355300 -51.376500 11.754300 -0.000000 0.000003 -0.006766 -0.077652 -19.737800 -2.192510 6.469440 -0.000001 -174.890000 20.419000 145.570000 -39.081100 -0.002282 -0.040193 0.144101 -0.102238 54.029500 -40.985400 0.000008 0.000006 4.282440 -7.255030 -66.747800 -11.754300 -0.000006 -0.000006 -0.006019 -0.071004 -19.462900
0.000000 0.000000 0.000000 0.000000 0.000000 -0.000000 -4.760170 85.914200 -473.428000 85.936000 7.563390 1.471590 15.735700 0.000005 -0.000001 70.862000 78.255200 -67.292700 8.984550 -0.406207 -0.000000 14.758100 -7.387720 8.109300 16.377300 -0.000001 -0.000001 6.747520 -1.697490 -0.827136 6.456720 -0.000001 -0.000000 1.249880 3.528370 -2.520900 12.994200 -0.242716 4.980390 -88.521300 -4.249770 -70.794200 5.348090 -0.000007 -0.000001 -48.737100 22.797200 -28.312600 24.328600 0.000019 0.000005 5.306720 3.480900 -56.830900 22.291600 -0.000001 0.000005 4.197550 5.607170 -11.780800 12.994500 -0.242716 -4.980390 89.467400 1.027220 -62.587600 -5.348130 -0.000001 -0.000004 -53.462400 20.620800 -5.704430 -24.328900 0.000322 -0.000009 3.966520 6.434160 -31.756000 -22.291500 -0.000108 -0.000004 1.896940 5.548600 -8.639570 -2.192480 -6.469440 -0.000000 -165.927000 -2.827140 -1.195620 39.081100 -0.000007 -0.000012 0.198569 -0.099139 63.467300 40.985400 -0.000006 -0.000013 6.735750 -8.895870 -51.122200 11.754300 -0.000000 0.000003 -0.006037 -0.071178 -19.473700 -2.192510 6.469440 -0.000001 -175.639000 18.627700 150.230000 -39.081100 -0.002282 -0.040193 0.108131 -0.082785 51.717400 -40.985400 0.000008 0.000006 3.573920 -7.385950 -68.812100 -11.754300 -0.000006 -0.000006 -0.006221 -0.072832 -19.537400
0.000000 0.000000 0.000000 0.000000 0.000000 -0.000000 -4.794460 87.263200 -469.553000 86.717000 5.652050 0.954924 15.735700 0.000005 -0.000001 73.719700 78.816100 -70.653200 8.984550 -0.406207 -0.000000 13.932000 -6.035140 6.877850 16.377300 -0.000001 -0.000001 6.470930 -1.534710 -0.848412 6.456720 -0.000001 -0.000000 1.663680 2.688090 -2.645420 12.994200 -0.242716 4.980390 -88.597500 -3.883990 -70.128000 5.348090 -0.000007 -0.000001 -51.284800 27.518800 -23.326600 24.328600 0.000019 0.000005 6.043070 4.392520 -54.116400 22.291600 -0.000001 0.000005 3.400880 5.609950 -11.956900 12.994500 -0.242716 -4.980390 89.133900 1.757360 -63.758200 -5.348130 -0.000001 -0.000004 -50.925100 23.966000 -11.553600 -24.328900 0.000322 -0.000009 3.090690 4.601700 -33.953900 -22.291500 -0.000108 -0.000004 1.980760 5.552920 -8.844660 -2.192480 -6.469440 -0.000000 -168.041000 -5.842600 -7.533580 39.081100 -0.000007 -0.000012 0.215382 -0.080337 69.543200 40.985400 -0.000006 -0.000013 7.603200 -9.374880 -53.559300 11.754300 -0.000000 0.000003 -0.005457 -0.065827 -19.255500 -2.192510 6.469440 -0.000001 -176.836000 17.041400 154.765000 -39.081100 -0.002282 -0.040193 0.078503 -0.067380 48.158100 -40.985400 0.000008 0.000006 3.171210 -6.988110 -69.749700 -11.754300 -0.000006 -0.000006 -0.006721 -0.077246 -19.717500
0.000000 0.000000 0.000000 0.000000 0.000000 -0.000000 -4.700130 88.642900 -465.883000 87.661500 3.778330 0.289234 15.735700 0.000005 -0.000001 76.637800 79.450500 -74.144800 8.984550 -0.406207 -0.000000 12.902200 -4.716530 5.521900 16.377300 -0.000001 -0.000001 6.542480 -1.389550 -0.733428 6.456720 -0.000001 -0.000000 2.053650 1.752890 -3.022850 12.994200 -0.242716 4.980390 -88.594600 -3.726550 -69.319700 5.348090 -0.000007 -0.000001 -54.794100 31.322000 -17.404500 24.328600 0.000019 0.000005 5.849650 4.751420 -51.045800 22.291600 -0.000001 0.000005 2.486990 5.610950 -12.019500 12.994500 -0.242716 -4.980390 89.146600 1.810130 -64.752900 -5.348130 -0.000001 -0.000004 -48.203500 26.189200 -17.799800 -24.328900 0.000322 -0.000009 1.858710 2.509990 -36.562500 -22.291500 -0.000108 -0.000004 2.338480 5.549460 -8.680320 -2.192480 -6.469440 -0.000000 -170.604000 -8.526350 -14.182000 39.081100 -0.000007 -0.000012 0.243025 -0.076944 72.430500 40.985400 -0.000006 -0.000013 5.646060 -7.136520 -54.881400 11.754300 -0.000000 0.000003 -0.005048 -0.061941 -19.097100 -2.192510 6.469440 -0.000001 -178.282000 16.109300 159.318000 -39.081100 -0.002282 -0.040193 0.055483 -0.054739 43.647600 -40.985400 0.000008 0.000006 2.811230 -5.887520 -69.997600 -11.754300 -0.000006 -0.000006 -0.007244 -0.081749 -19.901300
